# xmcd
#
# Track frame offsets:
# 150
# 13636
# 25507
# 35799
# 51992
# 68794
# 88459
# 106611
# 120332
# 134884
# 146783
# 157530
# 171041
# 188635
# 205377
#
# Disc length: 2951 seconds
#
#
# Revision: 0
# Processed by: cddbd v1.5.2PL0 Copyright (c) Steve Scherf et al.
# Submitted via: Nero 7, 2, 0, 3 
#
DISCID=cc0b850f
DTITLE=Johnny Ellis - With Love
DYEAR=2009
DGENRE=Country
TTITLE0=I Can't Help Falling in Love
TTITLE1=Welcome to My World
TTITLE2=Blue Eyes Crying in the Rain
TTITLE3=Always On My Mind
TTITLE4=Feels So Right
TTITLE5=Don't Close Your Eyes
TTITLE6=For the Good Times
TTITLE7=All the Way
TTITLE8=September Song
TTITLE9=Strangers in the Night
TTITLE10=Sweet Dreams
TTITLE11=1982
TTITLE12=When You Say Nothing At All
TTITLE13=After the Loving
TTITLE14=The Dance
EXTD=
EXTT0=
EXTT1=
EXTT2=
EXTT3=
EXTT4=
EXTT5=
EXTT6=
EXTT7=
EXTT8=
EXTT9=
EXTT10=
EXTT11=
EXTT12=
EXTT13=
EXTT14=
PLAYORDER=
